<svg xmlns="http://www.w3.org/2000/svg" viewBox="0 0 112.11 128" id="emblem-car" class="emblem-svg"><title>Caruso Emblem</title><path d="M96.69 53.66a24.28 24.28 0 0 1 .1 5.84 24.06 24.06 0 0 1-1.74 5.73s6.17 1 6.91-6c.38-3.69-5.27-5.57-5.27-5.57Zm-13.46 6.11v.37a9.1 9.1 0 0 1-4.55-.75A28.61 28.61 0 0 1 74.92 57l-2.24 1s.26-2-.44-2.1c-.44-.05-1.77 3.48-6.58 3.56-2.24 0-6-.88-6-2.81s1.74-1.66 2-.9c.21.59-.7 1.16-.7 1.16s.08 1.48 2.79 1.17a8.86 8.86 0 0 0 4.1-1.51 28.79 28.79 0 0 0 5.2-5.1A16 16 0 0 0 77.11 57a11.59 11.59 0 0 0 6.12 2.77Zm-10.9-9.54-1.12 1.3a19.17 19.17 0 0 1-2.35-2c-.89-.92-1.5-1.93-2.63-3a42.69 42.69 0 0 0-4.28-3.35l-.1-.93s9.49 3.75 10.42 4.01 1 .78.93 1.24c0 .16 0 .11-.62.19s-.25 2.54-.25 2.54Zm-15-24.63s28.82 18.76 30.54 20.21c1.27 1.06 3.49 3.94 3.19 6.91-.44 4.44-3.65 6.18-5.75 6.16A12.05 12.05 0 0 1 77.99 56a15.53 15.53 0 0 1-4.06-5.64l-.1-1.72s1.54.1 1.43-.6a54.38 54.38 0 0 0-3.21-4.9c-1.29-1.91-2.22-3.47-2.71-4.29a55.26 55.26 0 0 0-4.82-4.25 1.92 1.92 0 0 0 0-1.61c-.31-.61-4.56-3.84-5.74-5a6.91 6.91 0 0 1-1.45-2.39Zm49.91 95.69a26.62 26.62 0 0 1-6.65 4.47A23.36 23.36 0 0 1 90.12 128c-8.23 0-16.11-4-22.2-11.17A39.06 39.06 0 0 1 58.75 92a37.05 37.05 0 0 1 11.21-27.06c-.56.11-1.77.5-3.12.71a30.7 30.7 0 0 1-5.69.18c-3.27-.13-4.23-1.1-4.23-1.88s.37-1 1.07-1 .51 1.52.51 1.52a12.37 12.37 0 0 0 7.55-.83 21.91 21.91 0 0 0 6.94-4.45l1.65-.62s4.07 3.54 9 2.83c4.16-.6 8.44-2.88 8.85-8.29a10.58 10.58 0 0 0-2.79-7.42 19 19 0 0 0-3.65-2.79c-1.75-1.2-3.59-2.65-3.59-2.65a15.48 15.48 0 0 0 .08-5.54 33 33 0 0 0-1.4-5.23s1.08.6 2.63 1.3a24 24 0 0 0 3.51 1.3 39.68 39.68 0 0 1 6.63 13.34 49.7 49.7 0 0 1 1.61 12 20.87 20.87 0 0 1-3.33 10.11C89.38 72 85.05 74.78 82.56 78a12.75 12.75 0 0 0-2.66 5.38 50.29 50.29 0 0 0 .16 8.9c.23.93.35 1.82.87 2 1 .37.51-.78 1.42-.78 1.58 0 .93 2.19-.87 2.32s-1.94-2.27-1.94-2.27-.13 5.91 5.94 11.24c2.72 2.39 6.23 3.77 8.82 3.65 1.47-.07 2.55-.25 3.11-.19.77.07.86.26.86.75s-.84 1.35-2.48 1.78a11.82 11.82 0 0 1-3.28.45c-.71 0-8.36-3.12-11.9-9.75-3.39-6.34-2.77-14.06-2.91-15.82a67.4 67.4 0 0 1-.09-7.36c0-.32-.08-1.93-.78-1.93-.36 0-1-.06-2.58 1.89s-3 6.46-3.37 5.15a18.9 18.9 0 0 1 .31-8.09c1.11-3.79 4.61-6.86 4-7.67-.85-1.18-1.86-.14-3.21.7-1.68 1.05-3 2.63-3.38 2.22s.81-1.53 1.62-3a10 10 0 0 0 1-2c-9.49 8.64-10.63 19-10.63 26.25 0 8.65 2.53 15.16 7.73 19.92 4.64 4.24 7.59 3.76 8.84 3.55.45-.07.78-.12 1 .1a1.08 1.08 0 0 1 .25 1.15 2.16 2.16 0 0 1-1.94 1.29 19 19 0 0 1-5.37-1 6.82 6.82 0 0 0 3.71 2.15c6.79 1.14 9.32-.37 10.39-1a2.55 2.55 0 0 1 .57-.29.78.78 0 0 1 .93.26c.32.48 0 1.3-.42 1.87-1.27 1.59-4.26 1.88-5.48 1.93a22.32 22.32 0 0 1-4.47-.49 8.85 8.85 0 0 0 3.5 1.53 14.85 14.85 0 0 0 8.28-1.05 17.45 17.45 0 0 0 5.06-3.7 4.59 4.59 0 0 1 1.4-1.04h.1a1.26 1.26 0 0 1 1.27.57c.47.79-.08 2.06-.43 2.62a12.16 12.16 0 0 1-3.93 3.42 24.79 24.79 0 0 1-4 1.6c.77 0 1.56.07 2.06.07a7.37 7.37 0 0 0 6.1-2.45l.58-.52c.9-.82 1.66-1.44 2.41-1.34a1.21 1.21 0 0 1 .88.58 1 1 0 0 1 .18.78c-.12.64-.84 1.35-2.21 2.17l-.22.13a21.16 21.16 0 0 0-1.79 1.15c1.47.17 5.8-2 8-4 .45-.41.85-.8 1.21-1.14.93-.89 1.32-1.26 1.66-1.32.82-.15 1.13.24 1.22.42a1.38 1.38 0 0 1-.42 1.55Zm-26-81.6-3.29-2.23a15.71 15.71 0 0 0-.5-3.24c-.91-3.48-2.77-8.52-2.7-11.94a20.84 20.84 0 0 1 1.62-7.12c1.58-3.37 3-5.31 3.31-5.15s-2.71 4.06-2.45 6.7c.21 2.16.5 2.51 1.16 3.41a46.15 46.15 0 0 0 4.55 5.43 50.59 50.59 0 0 0 5.11 4.31 2.69 2.69 0 0 0 1.7.18c1.16-.15 2.13-.56 2.09-1.18-.08-1.32-1.24.07-1.7-.47a1 1 0 0 1 .91-1.64c1.09 0 1.69 1.23 1.66 2.09 0 1.18-1.18 2.36-3.82 2.11a18.89 18.89 0 0 1-5.24-1.52 38 38 0 0 1-5.51-3.2 28.1 28.1 0 0 1 3 7.44 21.47 21.47 0 0 1 .08 6.02Zm2.41-15.18s-4.4-5.31-4.6-6.09a8.46 8.46 0 0 1-.07-3.49c.1-.25 1.75-5.54 5.89-8.16 4.48-2.82 11.44-3 11.44-3a13 13 0 0 1 1.47 2.55c-.08 1.16-5.42 4.42-5.5 5.27 0 .38 1 .71 1.87.74s0 .54 0 .54-5.63.21-8.36 3.12-2.16 8.52-2.16 8.52Zm24.88-12.07s.87-2.19-.31-3.7c-1.65-2.1-4.87-2.56-7.25-4.33A23 23 0 0 1 96.78 0l-.08 1.93s2 2.87 2.47 3.64a1.34 1.34 0 0 1-.07 1.7c-.31.39-5.06 4.17-5.06 4.17l1.89.09a11 11 0 0 1 2.08.93 8.08 8.08 0 0 0 3.41 2.24 41.56 41.56 0 0 0 4.1.7 4.94 4.94 0 0 1 2.16.79c.85.58 1.67 1.6 1.86 1.6s-.13-1.14-.74-2.08c-.45-.68-1.21-1.17-1.11-1.4.23-.54 4.17 2.17 4.4 1.94s-3.58-3.81-3.58-3.81Zm-2.6-.06c-.15.14-.55.15-1.17-.09a4 4 0 0 1-2.07-2c-.5-1.08-.37-1.81-.23-1.89s3.38 1.4 3.57 2.26a3.1 3.1 0 0 1-.12 1.72Zm-2.37-2.65c.18-.16 1.56.36 1.6.81a.61.61 0 0 1-.4.71c-.24.1-.55.18-.71 0a2.49 2.49 0 0 1-.51-1c-.09-.25-.16-.38 0-.52ZM10.14 59.25c.74 7 6.91 6 6.91 6a24.06 24.06 0 0 1-1.74-5.73 24.28 24.28 0 0 1 .1-5.84s-5.65 1.86-5.27 5.57ZM34.99 57a16 16 0 0 0 4.06-5.53 28.79 28.79 0 0 0 5.18 5.08 8.86 8.86 0 0 0 4.1 1.51c2.71.31 2.79-1.17 2.79-1.17s-.91-.57-.7-1.16c.27-.76 2.09-1 2 .9s-3.79 2.85-6 2.81c-4.81-.08-6.14-3.61-6.58-3.56-.7.09-.44 2.1-.44 2.1l-2.24-1a28.61 28.61 0 0 1-3.76 2.38 9.1 9.1 0 0 1-4.55.75v-.37A11.59 11.59 0 0 0 34.99 57Zm4.53-9.34c-.62-.08-.6 0-.62-.19 0-.46 0-.93.93-1.24s10.42-3.89 10.42-3.89l-.1.93a42.69 42.69 0 0 0-4.28 3.35c-1.13 1-1.74 2-2.63 3a19.17 19.17 0 0 1-2.35 2l-1.12-1.3s.28-2.55-.25-2.63ZM53.34 28c-1.18 1.12-5.43 4.35-5.74 5a1.92 1.92 0 0 0 0 1.61 55.26 55.26 0 0 0-4.82 4.25c-.49.82-1.42 2.38-2.71 4.29a54.38 54.38 0 0 0-3.23 4.92c-.11.7 1.43.6 1.43.6l-.1 1.72A15.53 15.53 0 0 1 34.11 56a12.05 12.05 0 0 1-7.32 2.86c-2.1 0-5.31-1.72-5.75-6.16-.3-3 1.92-5.85 3.19-6.91 1.72-1.43 30.54-20.19 30.54-20.19a6.91 6.91 0 0 1-1.43 2.4ZM4.4 119.74c.09-.18.4-.57 1.22-.42.34.06.73.43 1.66 1.32.36.34.76.73 1.21 1.14 2.21 2 6.54 4.15 8 4a21.16 21.16 0 0 0-1.79-1.15l-.22-.13c-1.37-.82-2.09-1.53-2.21-2.17a1 1 0 0 1 .18-.78 1.21 1.21 0 0 1 .88-.58c.75-.1 1.51.52 2.41 1.34l.58.52a7.37 7.37 0 0 0 6.1 2.45c.5 0 1.29 0 2.06-.07a24.79 24.79 0 0 1-4-1.6 12.16 12.16 0 0 1-3.93-3.42c-.35-.56-.9-1.83-.43-2.62a1.26 1.26 0 0 1 1.27-.57h.1a4.59 4.59 0 0 1 1.41 1.12 17.45 17.45 0 0 0 5.06 3.7 14.85 14.85 0 0 0 8.28 1.05 8.85 8.85 0 0 0 3.5-1.53 22.32 22.32 0 0 1-4.47.49c-1.22 0-4.21-.34-5.48-1.93-.45-.57-.74-1.39-.42-1.87a.78.78 0 0 1 .93-.26 2.55 2.55 0 0 1 .57.29c1.07.65 3.6 2.16 10.39 1a6.82 6.82 0 0 0 3.79-2.13 19 19 0 0 1-5.37 1 2.16 2.16 0 0 1-1.94-1.29 1.08 1.08 0 0 1 .25-1.15c.23-.22.56-.17 1-.1 1.25.21 4.2.69 8.84-3.55 5.2-4.76 7.73-11.27 7.73-19.92 0-7.2-1.14-17.61-10.63-26.25a10 10 0 0 0 .95 2c.81 1.43 2 2.55 1.62 3s-1.73-1.27-3.45-2.32c-1.35-.84-2.36-1.88-3.21-.7-.58.81 2.92 3.88 4 7.67a18.9 18.9 0 0 1 .31 8.09c-.41 1.31-1.74-3-3.37-5.15s-2.22-1.89-2.58-1.89c-.7 0-.77 1.61-.78 1.93a67.4 67.4 0 0 1-.09 7.36c-.14 1.76.48 9.48-2.91 15.82-3.54 6.63-11.19 9.75-11.9 9.75a11.82 11.82 0 0 1-3.28-.45c-1.64-.43-2.48-1.34-2.48-1.78s.09-.68.86-.75c.56-.06 1.64.12 3.11.19 2.59.12 6.1-1.26 8.82-3.65 6.07-5.33 5.94-11.24 5.94-11.24s-.08 2.39-1.94 2.27-2.45-2.32-.87-2.32c.91 0 .4 1.15 1.42.78.52-.18.64-1.07.87-2a50.29 50.29 0 0 0 .16-8.9A12.75 12.75 0 0 0 29.54 78c-2.48-3.22-6.82-6-9.66-10.47a20.87 20.87 0 0 1-3.33-10.11 49.7 49.7 0 0 1 1.61-12 39.68 39.68 0 0 1 6.63-13.34 24 24 0 0 0 3.51-1.3c1.55-.7 2.63-1.3 2.63-1.3a33 33 0 0 0-1.4 5.23 15.48 15.48 0 0 0 .08 5.54s-1.84 1.45-3.56 2.65a19 19 0 0 0-3.59 2.79 10.58 10.58 0 0 0-2.79 7.42c.41 5.41 4.69 7.69 8.85 8.29 4.91.71 9-2.83 9-2.83l1.65.62a21.91 21.91 0 0 0 6.88 4.45 12.37 12.37 0 0 0 7.54.82s-.25-1.51.51-1.52 1.07.24 1.07 1-1 1.75-4.23 1.88a30.7 30.7 0 0 1-5.69-.18c-1.35-.21-2.56-.6-3.12-.71A37.05 37.05 0 0 1 53.35 92a39.06 39.06 0 0 1-9.17 24.8C38.05 124 30.21 128 21.98 128a23.36 23.36 0 0 1-10.47-2.24 26.62 26.62 0 0 1-6.65-4.47 1.38 1.38 0 0 1-.46-1.55Zm26.59-86.07a28.1 28.1 0 0 1 2.95-7.44 38 38 0 0 1-5.51 3.2A18.89 18.89 0 0 1 23.19 31c-2.64.25-3.78-.93-3.82-2.11 0-.86.57-2.09 1.66-2.09a1 1 0 0 1 .92 1.64c-.46.54-1.62-.85-1.7.47 0 .62.93 1 2.09 1.18a2.69 2.69 0 0 0 1.7-.18 50.59 50.59 0 0 0 5.12-4.31 46.15 46.15 0 0 0 4.55-5.43c.66-.9 1-1.25 1.16-3.41.26-2.64-2.76-6.55-2.45-6.7s1.73 1.78 3.31 5.15a20.84 20.84 0 0 1 1.62 7.12c.07 3.42-1.79 8.46-2.7 11.94a15.71 15.71 0 0 0-.5 3.24l-3.27 2.23a21.47 21.47 0 0 1 .11-6.07ZM26.31 16c-2.73-2.91-8.36-3.12-8.36-3.12s-.78-.51 0-.54 1.9-.36 1.87-.74c-.08-.85-5.42-4.11-5.5-5.27a13 13 0 0 1 1.47-2.55s7 .16 11.44 3c4.14 2.62 5.79 7.91 5.89 8.16a8.46 8.46 0 0 1-.07 3.48c-.2.78-4.58 6.09-4.58 6.09S29.12 19 26.31 16Zm-26.26.25c.23.23 4.17-2.48 4.4-1.94.1.23-.66.72-1.11 1.4-.61.94-1 2.08-.74 2.08s1-1 1.86-1.6a4.94 4.94 0 0 1 2.16-.79 41.56 41.56 0 0 0 4.1-.7 8.08 8.08 0 0 0 3.33-2.24 11 11 0 0 1 2.08-.93l1.92-.09s-4.74-3.78-5-4.17a1.34 1.34 0 0 1-.07-1.7c.46-.77 2.47-3.64 2.47-3.64L15.32 0a23 23 0 0 1-4.17 4.41C8.77 6.18 5.55 6.64 3.9 8.74c-1.18 1.51-.31 3.7-.31 3.7S-.23 16 .05 16.25Zm6-5.61c.19-.86 3.36-2.36 3.57-2.26s.27.81-.23 1.89a4 4 0 0 1-2.07 2c-.62.24-1 .23-1.17.09a3.1 3.1 0 0 1-.1-1.72Zm2.49-.32a2.49 2.49 0 0 1-.51 1c-.16.15-.47.07-.71 0a.61.61 0 0 1-.4-.71c0-.45 1.42-1 1.6-.81s.13.2.06.52Z" fill-rule="evenodd"/></svg>