<svg xmlns="http://www.w3.org/2000/svg" viewBox="0 0 40 40"><path d="M16.4 12.25c.2.1.4.2.7.2-.1.1-.2.3-.4.4h-.5c0-.2.1-.4.2-.6m10.2 12.5c-.2.1-.3.2-.5.3 0 .2-.1.3-.2.5.2 0 .5 0 .7-.1.1-.3.1-.5 0-.7m-13.3-11.6c.4 0 .9-.1 1.3-.1.1-.4.3-.8.4-1.2-.6-.2-1.2-.4-1.8-.5 0 .5 0 1.1.1 1.8m6.3-1.3c.2.1.3.1.5.2.2-.1.3-.1.5-.2l-.5-.5c-.1.2-.3.4-.5.5m-6.4-2.2c.8.2 1.5.4 2.3.7.3-.8.6-1.5 1-2.2-1-.8-2.1-1.5-3-2.1-.2 1.1-.3 2.3-.3 3.6m13.6 5c-.2 0-.5-.1-.7-.1.1.2.1.3.1.5.2.1.3.2.5.3.1-.2.1-.4.1-.7m-3.6-2.1c.1.1.2.3.4.4h.5c-.1-.2-.1-.4-.2-.7-.3.1-.5.2-.7.3m-2-2.2l.9.9c.4-.2.8-.3 1.2-.4-.2-.6-.5-1.2-.7-1.8-.5.5-.9.9-1.4 1.3m-4.3.5c.4.1.8.3 1.2.4l.9-.9c-.5-.4-.9-.9-1.4-1.3-.2.6-.4 1.2-.7 1.8m6.3 18.3c-.4-.1-.8-.3-1.2-.4l-.9.9c.5.4.9.9 1.4 1.3.2-.7.4-1.2.7-1.8m.7-2.1h-.5c-.1.1-.2.3-.4.4.2.1.4.2.7.2.1-.1.2-.3.2-.6m-3.4 1c-.2-.1-.3-.1-.5-.2-.2.1-.3.1-.5.2l.5.5.5-.5m-7.4-1.3c-.1.6-.1 1.3-.1 1.9.6-.2 1.2-.3 1.8-.5-.1-.4-.3-.8-.4-1.2-.4-.1-.8-.2-1.3-.2zm13.8 3.5c-.8-.2-1.5-.4-2.4-.7-.3.8-.6 1.5-1 2.2 1 .8 2.1 1.5 3 2.1.3-1 .4-2.2.4-3.6m-13.7 3.5c1-.5 2-1.2 3-2-.3-.7-.6-1.5-.9-2.3l-2.4.6c.1 1.4.2 2.7.3 3.7m3.4-6.7h-.5c.1.2.1.4.2.7.2-.1.4-.1.7-.2-.2-.2-.3-.4-.4-.5m10.2-.2c-.4 0-.9.1-1.3.1-.1.4-.3.8-.4 1.2.6.2 1.2.4 1.8.5 0-.5 0-1.1-.1-1.8m-7.9 2.7l-.9-.9c-.4.2-.8.3-1.2.4.2.6.5 1.2.7 1.8.5-.4.9-.9 1.4-1.3m9.5-16.1c.8.1 1.6.3 2.4.4.6-1.2 1-2.4 1.4-3.4-1.1.1-2.3.2-3.6.5-.1.8-.1 1.7-.2 2.5m-.6 8.9c.2-.1.4-.2.6-.4-.1-.2-.2-.4-.4-.6-.1.1-.2.3-.3.4 0 .2.1.4.1.6m-14.5 2.9c.2 0 .5.1.7.1 0-.2-.1-.3-.1-.5-.2-.1-.3-.2-.5-.3-.1.3-.1.5-.1.7m14.5-6.9c.1.1.2.3.3.4.1-.2.3-.4.4-.6-.2-.1-.4-.3-.6-.4-.1.2-.1.4-.1.6m.3-2.2c.4.2.7.5 1.1.7.3-.6.6-1.1.9-1.7-.6-.1-1.2-.2-1.9-.3 0 .5 0 .9-.1 1.3zm1.5 2.8c-.2.4-.5.7-.7 1.1.2.4.5.7.7 1.1.5-.4 1.1-.7 1.6-1.1-.5-.3-1-.7-1.6-1.1m-1.6 5c.1.5.1.9.1 1.3.6-.1 1.3-.2 1.9-.3-.3-.6-.6-1.1-.9-1.7-.3.2-.7.4-1.1.7m7.1-7.3c-1-.4-2.2-.8-3.5-1.1l-1.2 2.1c.7.5 1.3 1 2 1.4 1-.7 1.9-1.5 2.7-2.4M32 5.25c-.7-.6-2.1-.5-3.8.3.2 1.2.3 2.5.3 4 1.4-.3 2.8-.5 4-.5.4-1.9.2-3.2-.5-3.8m-.2 29.7c.7-.6.9-1.9.6-3.8-1.2-.1-2.5-.2-4-.6 0 1.5-.2 2.8-.4 4 1.7.8 3 1 3.8.4M34 9.05c1.3.1 2.3.3 2.9.7-.8-1.4-1.8-2.6-2.9-3.7.2.7.3 1.7 0 3m-.3 1.4c-.3 1.1-.8 2.4-1.4 3.7 1.4.4 2.7.8 3.8 1.3 1.2-1.5 1.6-2.8 1.2-3.6-.5-.8-1.7-1.3-3.6-1.4m-20.3 4.8c.2-.1.3-.2.5-.3 0-.2.1-.3.2-.5-.2 0-.5 0-.7.1v.7m14.5-11.2c1.1-.5 2.1-.7 3-.7-1.3-.9-2.8-1.6-4.3-2.1.5.7.9 1.5 1.3 2.8m.4 22.6c.1.8.1 1.7.1 2.4 1.3.3 2.5.5 3.6.6-.3-1-.7-2.2-1.3-3.4-.8.2-1.6.3-2.4.4m8.1-3.7c1.7-.9 2.6-1.8 2.6-2.8 0-.9-.9-1.9-2.6-2.8-.8.9-1.8 1.8-2.9 2.8 1.2.9 2.1 1.9 2.9 2.8m-4-1.9c-.6.5-1.3.9-2 1.4.4.7.8 1.5 1.1 2.2 1.3-.3 2.5-.7 3.5-1.1-.7-.8-1.6-1.7-2.6-2.5M3 11.55c-.4.8 0 2.1 1.1 3.7 1.1-.5 2.4-.9 3.8-1.2-.6-1.4-1.1-2.6-1.4-3.8-1.8 0-3.1.5-3.5 1.3m30.8 19.6c.2 1.3.2 2.3 0 3 1.1-1.1 2.1-2.3 3-3.6-.7.3-1.7.6-3 .6m-27.7-.2c-1.3-.1-2.3-.4-3-.7.8 1.4 1.8 2.7 3 3.8-.2-.8-.3-1.8 0-3.1m6.1 5c-1.1.5-2.1.7-3 .7 1.3.9 2.8 1.6 4.3 2.1-.5-.7-1-1.6-1.3-2.8m9.6-3.7c-.6-.5-1.2-1.1-1.8-1.6-.6.5-1.2 1.1-1.8 1.6.6 1.2 1.2 2.3 1.8 3.2.5-1 1.2-2 1.8-3.2m-15.4-2.8c.3-1.2.8-2.4 1.4-3.8-1.4-.4-2.7-.8-3.8-1.3-1.2 1.5-1.6 2.8-1.2 3.6.4 1 1.7 1.5 3.6 1.5m-3.6-13.6c-.8-1.1-1.1-2-1.3-2.8-.6 1.5-.9 3.1-1.1 4.7.4-.6 1.2-1.2 2.4-1.9m24.3-4.5c-.6.1-1.2.3-1.8.5.1.4.3.8.4 1.2.4 0 .9.1 1.3.2 0-.7 0-1.3.1-1.9M3.6 22.65c.8-.9 1.8-1.8 2.9-2.8-1.1-.9-2.1-1.9-2.9-2.8-1.7.9-2.6 1.8-2.6 2.8 0 .9.9 1.9 2.6 2.8M19 36.55c-.7-1-1.4-2.1-2-3.5-1.2.9-2.3 1.6-3.4 2.2.5 1.9 1.2 3 2.1 3.2.8.2 2-.4 3.3-1.9m8.6-.5c-.4 1.2-.8 2.1-1.3 2.7 1.5-.5 3-1.2 4.3-2-.9 0-1.9-.2-3-.7m-7.4-33.8c.8-.9 1.6-1.5 2.4-1.9-1.6-.2-3.2-.2-4.8 0 .8.3 1.6 1 2.4 1.9M2.7 23.75c-1.2-.7-1.9-1.3-2.4-1.9.1.7.2 1.4.3 2.2.2.9.4 1.7.7 2.5.2-.8.6-1.7 1.4-2.8m17.2 14c-.8.9-1.6 1.5-2.4 1.9 1.5.2 3.1.2 4.7 0-.8-.4-1.5-1-2.3-1.9m-13.6-29c-.2-1.3-.2-2.3 0-3.1-1.2 1.1-2.2 2.4-3 3.7.7-.3 1.6-.5 3-.6m30.8 19.6c.4-.8 0-2.1-1.1-3.7-1.1.5-2.4.9-3.8 1.2.6 1.4 1.1 2.6 1.4 3.8 1.8 0 3.1-.4 3.5-1.3m.3-12.2c1.1.6 1.9 1.3 2.3 1.9l-.3-2.1c-.2-.9-.4-1.7-.7-2.5-.1.8-.5 1.7-1.3 2.7m-.1 7.9c.7 1.1 1.1 2 1.3 2.7.5-1.5.9-3 1.1-4.6-.5.7-1.2 1.3-2.4 1.9m-13.2 14.5c.9-.2 1.7-1.3 2.2-3.1-1.1-.6-2.2-1.3-3.3-2.2-.7 1.3-1.4 2.5-2.1 3.4 1.1 1.4 2.3 2.1 3.2 1.9M8.3 5.05c-.7.6-.9 1.9-.6 3.8 1.2.1 2.5.2 4 .6 0-1.5.2-2.8.4-4-1.7-.9-3-1-3.8-.4m4.2-1.1c.4-1.3.9-2.1 1.4-2.7-1.6.5-3 1.2-4.4 2 .9-.1 1.9.2 3 .7m-3.6 15.9c.5.4 1 .8 1.5 1.1.2-.4.5-.7.7-1.1-.2-.4-.5-.7-.7-1.1-.5.4-1 .8-1.5 1.1m3.4-2.2c-.2.1-.4.2-.6.4.1.2.2.4.4.6.1-.1.2-.3.3-.4-.1-.3-.1-.4-.1-.6m-.2-1.6c-.1-.5-.1-.9-.1-1.3-.6.1-1.3.2-1.9.3.3.6.6 1.1.9 1.7.3-.2.7-.5 1.1-.7zm14.8-9.9c-1 .5-2 1.2-3 2 .3.7.6 1.5.9 2.3l2.4-.6c-.1-1.4-.2-2.6-.3-3.7m-5.8-2.8c.7 1 1.4 2.1 2 3.5 1.2-.9 2.3-1.6 3.4-2.2-.5-1.8-1.2-3-2.1-3.2-.9-.2-2 .5-3.3 1.9m-2.8 4.4c.6.5 1.2 1 1.8 1.6.6-.6 1.2-1.1 1.8-1.6-.6-1.2-1.2-2.3-1.8-3.2-.5.9-1.2 2-1.8 3.2m-2-6.4H16c-.9.2-1.7 1.3-2.2 3.1 1.1.6 2.2 1.3 3.3 2.2.7-1.3 1.4-2.5 2.1-3.4-1-1.2-2.1-1.9-2.9-1.9m-5.4 21.7c-.3.6-.6 1.1-.9 1.7.6.1 1.2.2 1.9.3 0-.4.1-.9.2-1.3-.5-.2-.8-.4-1.2-.7m1.4-1.4c-.1-.1-.2-.3-.3-.4-.1.2-.2.4-.4.6.2.1.4.3.6.4.1-.2.1-.4.1-.6m-4.2 13.1c.7.6 2.1.5 3.8-.3-.2-1.2-.3-2.5-.3-4-1.4.3-2.8.4-4 .5-.4 1.9-.3 3.2.5 3.8m3.7-21.5c-.1-.8-.1-1.7-.1-2.4-1.3-.3-2.5-.5-3.6-.6.3 1 .7 2.2 1.3 3.4.8-.1 1.6-.2 2.4-.4m-4.1 5.7c.6-.5 1.3-.9 2-1.4-.4-.7-.8-1.4-1.2-2.2-1.3.3-2.5.7-3.5 1.1.8.8 1.7 1.6 2.7 2.5m4 7.6c-.8-.1-1.6-.3-2.4-.5-.6 1.2-1 2.4-1.4 3.4 1.1-.1 2.3-.2 3.6-.5.1-.8.1-1.6.2-2.4M5 23.25c1 .4 2.2.8 3.5 1.1l1.2-2.1c-.7-.5-1.3-1-2-1.4-1 .8-1.9 1.6-2.7 2.4" fill="#020203"/></svg>